<?xml version="1.0" encoding="UTF-8"?>
<svg version="1.1" xmlns="http://www.w3.org/2000/svg" width="200" height="200">
<path d="M0 0 C66 0 132 0 200 0 C200 66 200 132 200 200 C134 200 68 200 0 200 C0 134 0 68 0 0 Z " fill="#EAEAEB" transform="translate(0,0)"/>
<path d="M0 0 C1.00507533 0.95255357 1.9903168 1.92736203 2.9375 2.9375 C3.618125 3.618125 4.29875 4.29875 5 5 C6.32 5 7.64 5 9 5 C9 4.34 9 3.68 9 3 C9.66 3 10.32 3 11 3 C12.32286246 7.96073422 12.08893197 12.91111512 12 18 C7.1725201 16.58707905 3.2837641 14.57025846 -1 12 C-0.67 10.68 -0.34 9.36 0 8 C-16.8769033 -6.14561702 -33.54141317 -7.34589468 -55 -6 C-69.29256361 -4.31667894 -83.00996439 2.72287118 -92 14 C-99.95284785 25.27312229 -103.14963971 37.48750053 -105 51 C-103.02 51 -101.04 51 -99 51 C-99.02320313 49.86820313 -99.04640625 48.73640625 -99.0703125 47.5703125 C-99.08906901 46.08854825 -99.10726934 44.60677688 -99.125 43.125 C-99.14175781 42.37863281 -99.15851563 41.63226563 -99.17578125 40.86328125 C-99.1933959 38.90805539 -99.10320189 36.95257979 -99 35 C-97 33 -97 33 -93.5234375 32.8046875 C-92.14049032 32.81798507 -90.75761346 32.84183768 -89.375 32.875 C-88.66859375 32.88402344 -87.9621875 32.89304688 -87.234375 32.90234375 C-85.48943902 32.92592397 -83.74467705 32.96179539 -82 33 C-82.02320312 31.86820313 -82.04640625 30.73640625 -82.0703125 29.5703125 C-82.08906901 28.08854825 -82.10726934 26.60677688 -82.125 25.125 C-82.14175781 24.37863281 -82.15851563 23.63226563 -82.17578125 22.86328125 C-82.1933959 20.90805539 -82.10320189 18.95257979 -82 17 C-80 15 -80 15 -76.92724609 14.77294922 C-75.63898926 14.78342285 -74.35073242 14.79389648 -73.0234375 14.8046875 C-72.33819 14.8075174 -71.6529425 14.81034729 -70.94692993 14.81326294 C-68.75610973 14.82446719 -66.56569684 14.84957141 -64.375 14.875 C-62.8906309 14.88502952 -61.4062554 14.89415542 -59.921875 14.90234375 C-56.28111739 14.92440706 -52.64059844 14.95893824 -49 15 C-49.01160156 13.78441406 -49.02320313 12.56882812 -49.03515625 11.31640625 C-49.04453278 9.73177236 -49.05363313 8.14713682 -49.0625 6.5625 C-49.07087891 5.76005859 -49.07925781 4.95761719 -49.08789062 4.13085938 C-49.0965143 2.08704779 -49.0522815 0.04316098 -49 -2 C-46.95733571 -4.04266429 -42.86308566 -3.18507944 -40.0625 -3.1875 C-39.32064453 -3.19974609 -38.57878906 -3.21199219 -37.81445312 -3.22460938 C-35.87486371 -3.22988478 -33.9357629 -3.12188902 -32 -3 C-30 -1 -30 -1 -29.77294922 2.34814453 C-29.77326625 3.77640633 -29.78458639 5.20469212 -29.8046875 6.6328125 C-29.8075174 7.38464813 -29.81034729 8.13648376 -29.81326294 8.91110229 C-29.82447126 11.31589578 -29.84957648 13.72031881 -29.875 16.125 C-29.88502898 17.75390088 -29.89415497 19.38280758 -29.90234375 21.01171875 C-29.92441265 25.00795556 -29.95894649 29.00391494 -30 33 C-28.02 33 -26.04 33 -24 33 C-24.12375 32.154375 -24.2475 31.30875 -24.375 30.4375 C-23.85410732 25.66265043 -21.42773923 23.2234957 -18 20 C-15.48549114 18.74274557 -13.72555924 18.85257406 -10.91113281 18.82299805 C-9.31872772 18.80374519 -9.31872772 18.80374519 -7.69415283 18.78410339 C-6.54211365 18.77671646 -5.39007446 18.76932953 -4.203125 18.76171875 C-3.02159851 18.753647 -1.84007202 18.74557526 -0.6227417 18.73725891 C1.88234994 18.7234083 4.38746052 18.71269054 6.89257812 18.70483398 C10.72041721 18.68763294 14.54739024 18.64375513 18.375 18.59960938 C20.80728531 18.5894817 23.23957797 18.58096583 25.671875 18.57421875 C26.81581726 18.55671066 27.95975952 18.53920258 29.1383667 18.52116394 C35.35885651 18.53810516 39.3767052 18.63414084 44 23 C45.99550904 26.18324012 46.26063376 28.6822313 46.29052734 32.40771484 C46.30328705 33.48918793 46.31604675 34.57066101 46.32919312 35.68490601 C46.33141876 36.8484964 46.33364441 38.01208679 46.3359375 39.2109375 C46.3459227 41.01227646 46.3459227 41.01227646 46.35610962 42.8500061 C46.36623444 45.39022286 46.37092669 47.93046621 46.37060547 50.47070312 C46.37497559 54.35331148 46.41129115 58.23478049 46.44921875 62.1171875 C46.45508751 64.58593361 46.45905651 67.05468513 46.4609375 69.5234375 C46.47530853 70.68297943 46.48967957 71.84252136 46.50448608 73.03720093 C46.46901103 79.30850504 46.33020723 83.29563779 42 88 C38.50671003 90.32885998 37.25985034 90.19865277 33.15234375 90.09765625 C31.98896484 90.09572266 30.82558594 90.09378906 29.62695312 90.09179688 C27.19428651 90.07247978 24.7616638 90.02621269 22.33007812 89.95117188 C15.5361999 89.99225635 11.64974417 90.60714631 6.55859375 95.29296875 C5.03819414 96.86113772 3.51857206 98.4300612 2 100 C-17.02600971 114.17918227 -41.21502003 118.65849511 -64.41650391 115.69091797 C-78.84738537 113.21461287 -91.90388955 106.43095969 -100.81640625 94.5859375 C-111.40574403 77.86593048 -112.90640014 56.23325224 -108.92333984 37.09912109 C-104.28509625 18.84914755 -94.61475763 5.3238193 -78.59765625 -4.46875 C-76.11207313 -5.82527456 -73.62574288 -6.93989404 -71 -8 C-70.0409375 -8.39316406 -69.081875 -8.78632812 -68.09375 -9.19140625 C-45.85174987 -16.64871237 -18.76495776 -14.37664303 0 0 Z " fill="#0A3657" transform="translate(132,45)"/>
<path d="M0 0 C26.73 0 53.46 0 81 0 C81.33 8.91 81.66 17.82 82 27 C85.13175686 32.77260299 85.13175686 32.77260299 88 34 C89.59262066 34.15175549 91.19064856 34.24900325 92.7890625 34.31640625 C93.73007813 34.35830078 94.67109375 34.40019531 95.640625 34.44335938 C97.11789063 34.50233398 97.11789063 34.50233398 98.625 34.5625 C100.11386719 34.62727539 100.11386719 34.62727539 101.6328125 34.69335938 C104.08839838 34.79961069 106.54408703 34.90164964 109 35 C109 35.66 109 36.32 109 37 C100.24728084 44.51339609 89.64792808 49.34740057 78.75 52.8125 C78.1007959 53.01955566 77.4515918 53.22661133 76.78271484 53.43994141 C60.73399312 58.27615179 40.77904396 57.78092651 25.5625 50.6875 C21.17150898 48.29967183 17.6077865 45.45092622 14 42 C14 41.67 14 41.34 14 41 C14.7734375 40.87882812 15.546875 40.75765625 16.34375 40.6328125 C22.31882059 39.67147688 28.15592579 38.57340459 34 37 C33.67 36.01 33.34 35.02 33 34 C32.28457031 34.144375 31.56914063 34.28875 30.83203125 34.4375 C23.14300048 35.86986796 15.81049489 36.2267563 8 36 C6.8439273 33.7965194 5.70015279 31.58796844 4.5625 29.375 C4.23701172 28.75753906 3.91152344 28.14007813 3.57617188 27.50390625 C-1.11624786 18.31256863 0 10.69640853 0 0 Z " fill="#0476B9" transform="translate(27,100)"/>
<path d="M0 0 C1.07121094 -0.00945648 2.14242187 -0.01891296 3.24609375 -0.02865601 C4.98052734 -0.01954697 4.98052734 -0.01954697 6.75 -0.01025391 C7.93722656 -0.01312408 9.12445313 -0.01599426 10.34765625 -0.01895142 C12.85937985 -0.02099417 15.37111928 -0.01544963 17.8828125 -0.00292969 C21.73473572 0.01311999 25.58560955 -0.00277228 29.4375 -0.02197266 C31.87500232 -0.01999026 34.31250399 -0.01614667 36.75 -0.01025391 C37.90628906 -0.0163266 39.06257813 -0.02239929 40.25390625 -0.02865601 C41.32511719 -0.01919952 42.39632812 -0.00974304 43.5 0 C44.91539062 0.00358017 44.91539062 0.00358017 46.359375 0.00723267 C48.75 0.38818359 48.75 0.38818359 50.55386353 1.57858276 C52.1887277 4.05192224 52.13084415 5.77376398 52.13818359 8.72998047 C52.14764008 9.82121216 52.15709656 10.91244385 52.1668396 12.03674316 C52.16076691 13.21490601 52.15469421 14.39306885 52.1484375 15.60693359 C52.15130768 16.8163562 52.15417786 18.02577881 52.15713501 19.27185059 C52.15917786 21.83065254 52.15363268 24.38947004 52.14111328 26.94824219 C52.12506379 30.87258714 52.14095562 34.79590206 52.16015625 38.72021484 C52.15817386 41.20329004 52.15433027 43.6863646 52.1484375 46.16943359 C52.15451019 47.34759644 52.16058289 48.52575928 52.1668396 49.73962402 C52.15738312 50.83085571 52.14792664 51.9220874 52.13818359 53.04638672 C52.13579681 54.00774536 52.13341003 54.969104 52.13095093 55.95959473 C51.75 58.38818359 51.75 58.38818359 50.55386353 60.19778442 C48.10642123 61.81289179 46.42424875 61.76897043 43.5 61.77636719 C42.42878906 61.78582367 41.35757813 61.79528015 40.25390625 61.80502319 C38.51947266 61.79591415 38.51947266 61.79591415 36.75 61.78662109 C35.56277344 61.78949127 34.37554687 61.79236145 33.15234375 61.7953186 C30.64062015 61.79736136 28.12888072 61.79181682 25.6171875 61.77929688 C21.76526428 61.76324719 17.91439045 61.77913947 14.0625 61.79833984 C11.62499768 61.79635745 9.18749601 61.79251386 6.75 61.78662109 C5.59371094 61.79269379 4.43742187 61.79876648 3.24609375 61.80502319 C2.17488281 61.79556671 1.10367188 61.78611023 0 61.77636719 C-0.94359375 61.77398041 -1.8871875 61.77159363 -2.859375 61.76913452 C-5.25 61.38818359 -5.25 61.38818359 -7.05386353 60.19778442 C-8.6887277 57.72444495 -8.63084415 56.00260321 -8.63818359 53.04638672 C-8.64764008 51.95515503 -8.65709656 50.86392334 -8.6668396 49.73962402 C-8.66076691 48.56146118 -8.65469421 47.38329834 -8.6484375 46.16943359 C-8.65274277 44.35529968 -8.65274277 44.35529968 -8.65713501 42.5045166 C-8.65917786 39.94571464 -8.65363268 37.38689715 -8.64111328 34.828125 C-8.62506379 30.90378005 -8.64095562 26.98046513 -8.66015625 23.05615234 C-8.65817386 20.57307715 -8.65433027 18.09000259 -8.6484375 15.60693359 C-8.65754654 13.83968933 -8.65754654 13.83968933 -8.6668396 12.03674316 C-8.65738312 10.94551147 -8.64792664 9.85427979 -8.63818359 8.72998047 C-8.63579681 7.76862183 -8.63341003 6.80726318 -8.63095093 5.81677246 C-8.25 3.38818359 -8.25 3.38818359 -7.05386353 1.57858276 C-4.60642123 -0.03652461 -2.92424875 0.00739676 0 0 Z " fill="#F36114" transform="translate(121.25,68.61181640625)"/>
<path d="M0 0 C1.00507533 0.95255357 1.9903168 1.92736203 2.9375 2.9375 C3.618125 3.618125 4.29875 4.29875 5 5 C6.32 5 7.64 5 9 5 C9 4.34 9 3.68 9 3 C9.66 3 10.32 3 11 3 C12.32286246 7.96073422 12.08893197 12.91111512 12 18 C7.1725201 16.58707905 3.2837641 14.57025846 -1 12 C-0.67 10.68 -0.34 9.36 0 8 C-16.8769033 -6.14561702 -33.54141317 -7.34589468 -55 -6 C-69.29256361 -4.31667894 -83.00996439 2.72287118 -92 14 C-98.66624693 23.44937188 -102.26634793 33.61228544 -104 45 C-104.33 44.34 -104.66 43.68 -105 43 C-105.99 43.66 -106.98 44.32 -108 45 C-108.73606499 48.56769552 -108.73606499 48.56769552 -109 52 C-109.33 52 -109.66 52 -110 52 C-110.44763913 35.84918012 -104.33570667 19.45857985 -94.00390625 7.0234375 C-87.52433804 0.48071561 -79.51641938 -4.56161804 -71 -8 C-70.0409375 -8.39316406 -69.081875 -8.78632812 -68.09375 -9.19140625 C-45.85174987 -16.64871237 -18.76495776 -14.37664303 0 0 Z " fill="#123B5A" transform="translate(132,45)"/>
<path d="M0 0 C7.58044988 -0.10152851 15.160724 -0.17151993 22.74169922 -0.21972656 C25.31989088 -0.23982563 27.89803704 -0.26710941 30.47607422 -0.30175781 C34.18468461 -0.35034847 37.89269156 -0.37298658 41.6015625 -0.390625 C42.75177887 -0.41127014 43.90199524 -0.43191528 45.08706665 -0.45318604 C51.32711536 -0.45493058 55.36575299 -0.38871761 60 4 C62.01012724 7.19947357 62.2566635 9.7092967 62.2746582 13.45532227 C62.28895622 15.0920565 62.28895622 15.0920565 62.30354309 16.76185608 C62.30263168 17.93485764 62.30172028 19.10785919 62.30078125 20.31640625 C62.30506638 21.52441391 62.3093515 22.73242157 62.31376648 23.97703552 C62.31950814 26.52984999 62.32001126 29.08268081 62.31567383 31.63549805 C62.31250937 35.55090026 62.33599189 39.46555035 62.36132812 43.38085938 C62.36360059 45.85937404 62.36430486 48.33789075 62.36328125 50.81640625 C62.372491 51.99143204 62.38170074 53.16645782 62.39118958 54.37709045 C62.38496078 55.46509445 62.37873199 56.55309845 62.37231445 57.67407227 C62.37294388 58.6324147 62.3735733 59.59075714 62.3742218 60.57814026 C62 63 62 63 59 66 C59 49.5 59 33 59 16 C58.34 15.67 57.68 15.34 57 15 C56.66073053 12.66752239 56.32759934 10.33414529 56 8 C53.46024012 5.46024012 52.52307 5.73221841 48.99951172 5.68115234 C47.43811966 5.65134781 47.43811966 5.65134781 45.84518433 5.62094116 C44.1545134 5.60361435 44.1545134 5.60361435 42.4296875 5.5859375 C41.27832306 5.56657135 40.12695862 5.5472052 38.94070435 5.5272522 C35.25221231 5.46732628 31.56368928 5.42101874 27.875 5.375 C25.37889241 5.33683223 22.88279815 5.29778122 20.38671875 5.2578125 C14.25793063 5.16161412 8.12906262 5.07660494 2 5 C2 4.67 2 4.34 2 4 C18.5 3.67 35 3.34 52 3 C34.84 2.67 17.68 2.34 0 2 C0 1.34 0 0.68 0 0 Z " fill="#2C435B" transform="translate(116,64)"/>
<path d="M0 0 C3.96 0 7.92 0 12 0 C12 4.29 12 8.58 12 13 C8.04 13 4.08 13 0 13 C0 8.71 0 4.42 0 0 Z " fill="#0373B6" transform="translate(70,83)"/>
<path d="M0 0 C3.96 0 7.92 0 12 0 C12 4.29 12 8.58 12 13 C8.04 13 4.08 13 0 13 C0 8.71 0 4.42 0 0 Z " fill="#0374B6" transform="translate(54,83)"/>
<path d="M0 0 C3.96 0 7.92 0 12 0 C12 4.29 12 8.58 12 13 C8.04 13 4.08 13 0 13 C0 8.71 0 4.42 0 0 Z " fill="#0474B7" transform="translate(70,65)"/>
<path d="M0 0 C9.57 0 19.14 0 29 0 C29 1.65 29 3.3 29 5 C19.1 5 9.2 5 -1 5 C-0.67 3.35 -0.34 1.7 0 0 Z " fill="#F6E1D5" transform="translate(124,116)"/>
<path d="M0 0 C3.63 0 7.26 0 11 0 C11 4.29 11 8.58 11 13 C7.37 13 3.74 13 0 13 C0 8.71 0 4.42 0 0 Z " fill="#0375B8" transform="translate(86,83)"/>
<path d="M0 0 C3.63 0 7.26 0 11 0 C11 4.29 11 8.58 11 13 C7.37 13 3.74 13 0 13 C0 8.71 0 4.42 0 0 Z " fill="#0376BA" transform="translate(38,83)"/>
<path d="M0 0 C3.63 0 7.26 0 11 0 C11 4.29 11 8.58 11 13 C7.37 13 3.74 13 0 13 C0 8.71 0 4.42 0 0 Z " fill="#0375B9" transform="translate(86,65)"/>
<path d="M0 0 C3.63 0 7.26 0 11 0 C11 4.29 11 8.58 11 13 C7.37 13 3.74 13 0 13 C0 8.71 0 4.42 0 0 Z " fill="#0374B7" transform="translate(55,65)"/>
<path d="M0 0 C3.3 0 6.6 0 10 0 C10 4.29 10 8.58 10 13 C6.7 13 3.4 13 0 13 C0 8.71 0 4.42 0 0 Z " fill="#0376BB" transform="translate(87,47)"/>
<path d="M0 0 C3.34820898 1.46625856 5.69266359 3.33658447 8.3125 5.875 C9.38951172 6.89207031 9.38951172 6.89207031 10.48828125 7.9296875 C12 10 12 10 12.015625 11.9609375 C10.61382305 14.7753245 8.70305234 16.58017522 6.4375 18.75 C5.61121094 19.54921875 4.78492188 20.3484375 3.93359375 21.171875 C3.29550781 21.77515625 2.65742187 22.3784375 2 23 C1.01 22.67 0.02 22.34 -1 22 C-0.40716379 18.60807637 0.76743189 16.7892243 3.0625 14.25 C3.88427734 13.32960938 3.88427734 13.32960938 4.72265625 12.390625 C5.14417969 11.93171875 5.56570312 11.4728125 6 11 C5.22462891 10.31164062 5.22462891 10.31164062 4.43359375 9.609375 C3.77488281 8.99578125 3.11617187 8.3821875 2.4375 7.75 C1.77621094 7.14671875 1.11492187 6.5434375 0.43359375 5.921875 C-1 4 -1 4 -0.71484375 1.765625 C-0.47894531 1.18296875 -0.24304688 0.6003125 0 0 Z " fill="#F6EAE4" transform="translate(125,77)"/>
<path d="M0 0 C8.25 0 16.5 0 25 0 C25.33 1.32 25.66 2.64 26 4 C17.42 4 8.84 4 0 4 C0 2.68 0 1.36 0 0 Z " fill="#F5F1EE" transform="translate(138,106)"/>
<path d="M0 0 C2.31 0 4.62 0 7 0 C7 4.29 7 8.58 7 13 C4.69 13 2.38 13 0 13 C0 8.71 0 4.42 0 0 Z " fill="#0373B5" transform="translate(102,83)"/>
<path d="M0 0 C0.33 0 0.66 0 1 0 C1 10.56 1 21.12 1 32 C-2.31788079 27.57615894 -2.31788079 27.57615894 -2.4375 23.875 C-2.55628614 20.05756144 -2.55628614 20.05756144 -4.6875 18.5625 C-7.44622804 17.89145804 -10.18690691 17.3836036 -13 17 C-13 16.67 -13 16.34 -13 16 C-9.37 16 -5.74 16 -2 16 C-2.02320312 15.01257812 -2.04640625 14.02515625 -2.0703125 13.0078125 C-2.08835937 11.72648437 -2.10640625 10.44515625 -2.125 9.125 C-2.14820312 7.84882812 -2.17140625 6.57265625 -2.1953125 5.2578125 C-2 2 -2 2 0 0 Z " fill="#023050" transform="translate(100,45)"/>
<path d="M0 0 C5.28 0 10.56 0 16 0 C15.67 0.99 15.34 1.98 15 3 C11.37 3.33 7.74 3.66 4 4 C3.67 8.29 3.34 12.58 3 17 C2.01 17 1.02 17 0 17 C0 11.39 0 5.78 0 0 Z " fill="#022E4F" transform="translate(34,79)"/>
<path d="M0 0 C4.95 0 9.9 0 15 0 C15.33 1.32 15.66 2.64 16 4 C10.39 4 4.78 4 -1 4 C-0.67 2.68 -0.34 1.36 0 0 Z " fill="#F6EFEC" transform="translate(138,95)"/>
<path d="M0 0 C2.45391569 3.68087353 2.22802759 6.44355588 2.125 10.6875 C2.11597656 11.38939453 2.10695313 12.09128906 2.09765625 12.81445312 C2.07413704 14.54311525 2.03826713 16.27160145 2 18 C1.01 18 0.02 18 -1 18 C-1.66 18.66 -2.32 19.32 -3 20 C-2.56367091 13.11059329 -1.91610155 6.64248536 0 0 Z " fill="#CFD4D9" transform="translate(30,76)"/>
<path d="M0 0 C2.78637633 4.1795645 1.79562512 6.14668677 1 11 C0.67 10.34 0.34 9.68 0 9 C-0.99 9.66 -1.98 10.32 -3 11 C-3.73606499 14.56769552 -3.73606499 14.56769552 -4 18 C-4.33 18 -4.66 18 -5 18 C-5.20606587 12.23015553 -4.80464178 7.50890648 -3 2 C-2.01 1.34 -1.02 0.68 0 0 Z " fill="#1C4361" transform="translate(27,79)"/>
<path d="M0 0 C1.67542976 0.28604898 3.34385343 0.61781233 5 1 C5.625 2.875 5.625 2.875 6 5 C5.34 5.66 4.68 6.32 4 7 C1.375 6.625 1.375 6.625 -1 6 C-1.042721 4.33388095 -1.04063832 2.66617115 -1 1 C-0.67 0.67 -0.34 0.34 0 0 Z " fill="#083354" transform="translate(66,120)"/>
<path d="M0 0 C2.97 0 5.94 0 9 0 C9.33 1.32 9.66 2.64 10 4 C6.7 4 3.4 4 0 4 C0 2.68 0 1.36 0 0 Z " fill="#F5EEE8" transform="translate(123,106)"/>
<path d="M0 0 C2.375 0.25 2.375 0.25 5 1 C6.3125 3.0625 6.3125 3.0625 7 5 C4.03 4.505 4.03 4.505 1 4 C0.01 5.32 -0.98 6.64 -2 8 C-2.6875 6.25 -2.6875 6.25 -3 4 C-1.5625 1.75 -1.5625 1.75 0 0 Z " fill="#CEDBE3" transform="translate(65,117)"/>
<path d="M0 0 C1.25541557 3.76624671 0.37061958 5.37188934 -1 9 C-1.66 8.34 -2.32 7.68 -3 7 C-3.66 7.66 -4.32 8.32 -5 9 C-5 7.35 -5 5.7 -5 4 C-3.35 3.34 -1.7 2.68 0 2 C0 1.34 0 0.68 0 0 Z " fill="#083152" transform="translate(30,73)"/>
<path d="M0 0 C-1.28519565 2.86697492 -2.57129254 4.97607712 -5 7 C-5.66 7 -6.32 7 -7 7 C-3.86206897 0 -3.86206897 0 0 0 Z " fill="#F6F3F2" transform="translate(132,93)"/>
</svg>
